<?xml version="1.0" encoding="UTF-8"?>
<svg width="700pt" height="700pt" version="1.1" viewBox="0 0 700 700" xmlns="http://www.w3.org/2000/svg">
 <path d="m168.55 245.28c0-82.168 67.746-148.99 151.04-148.99 83.266 0 151.01 66.824 151.01 148.99 0 82.141-67.746 148.99-151.01 148.99-83.289 0-151.04-66.848-151.04-148.99m395.64 237.9-103.97-107.09c32.57-34.254 52.668-80.223 52.668-130.82 0-105.48-86.723-191.28-193.3-191.28-106.6 0-193.3 85.797-193.3 191.28 0 105.46 86.699 191.28 193.3 191.28 40.148 0 77.441-12.18 108.36-33.008l105.95 109.09c4.1406 4.2383 9.6484 6.3828 15.152 6.3828 5.3086 0 10.645-1.9727 14.738-5.9688 8.3555-8.1367 8.5508-21.512 0.41406-29.867" fill-rule="evenodd"/>
</svg>
